<mxfile host="app.diagrams.net" modified="2024-02-26T08:07:49.347Z" agent="Mozilla/5.0 (Windows NT 10.0; Win64; x64) AppleWebKit/537.36 (KHTML, like Gecko) Chrome/121.0.0.0 Safari/537.36 Edg/121.0.0.0" etag="YwrC13GvkK4s1y5jkqtJ" version="23.1.1" type="device">
  <diagram name="Page-1" id="40s2pjv-Qe4Tq1VGbg6i">
    <mxGraphModel dx="1146" dy="763" grid="1" gridSize="10" guides="1" tooltips="1" connect="1" arrows="1" fold="1" page="1" pageScale="1" pageWidth="850" pageHeight="1100" math="0" shadow="0">
      <root>
        <mxCell id="0" />
        <mxCell id="1" parent="0" />
        <mxCell id="hwOIIoW1mXE2I7TnD8qz-301" value="" style="rounded=0;whiteSpace=wrap;html=1;" vertex="1" parent="1">
          <mxGeometry x="92" y="260" width="498" height="590" as="geometry" />
        </mxCell>
        <mxCell id="hwOIIoW1mXE2I7TnD8qz-15" value="" style="rounded=1;whiteSpace=wrap;html=1;" vertex="1" parent="1">
          <mxGeometry x="250" y="520" width="190" height="20" as="geometry" />
        </mxCell>
        <mxCell id="hwOIIoW1mXE2I7TnD8qz-17" value="" style="ellipse;whiteSpace=wrap;html=1;aspect=fixed;" vertex="1" parent="1">
          <mxGeometry x="260" y="520" width="20" height="20" as="geometry" />
        </mxCell>
        <mxCell id="hwOIIoW1mXE2I7TnD8qz-39" value="Long Short Term Memory Block" style="shape=hexagon;perimeter=hexagonPerimeter2;whiteSpace=wrap;html=1;fixedSize=1;" vertex="1" parent="1">
          <mxGeometry x="235" y="310" width="220" height="40" as="geometry" />
        </mxCell>
        <mxCell id="hwOIIoW1mXE2I7TnD8qz-40" value="Long Short Term Memory Block" style="shape=hexagon;perimeter=hexagonPerimeter2;whiteSpace=wrap;html=1;fixedSize=1;" vertex="1" parent="1">
          <mxGeometry x="235" y="360" width="220" height="40" as="geometry" />
        </mxCell>
        <mxCell id="hwOIIoW1mXE2I7TnD8qz-41" value="Long Short Term Memory Block" style="shape=hexagon;perimeter=hexagonPerimeter2;whiteSpace=wrap;html=1;fixedSize=1;" vertex="1" parent="1">
          <mxGeometry x="235" y="410" width="220" height="40" as="geometry" />
        </mxCell>
        <mxCell id="hwOIIoW1mXE2I7TnD8qz-42" value="Long Short Term Memory Block" style="shape=hexagon;perimeter=hexagonPerimeter2;whiteSpace=wrap;html=1;fixedSize=1;" vertex="1" parent="1">
          <mxGeometry x="235" y="460" width="220" height="40" as="geometry" />
        </mxCell>
        <mxCell id="hwOIIoW1mXE2I7TnD8qz-43" value="" style="ellipse;whiteSpace=wrap;html=1;aspect=fixed;" vertex="1" parent="1">
          <mxGeometry x="290" y="520" width="20" height="20" as="geometry" />
        </mxCell>
        <mxCell id="hwOIIoW1mXE2I7TnD8qz-44" value="" style="ellipse;whiteSpace=wrap;html=1;aspect=fixed;" vertex="1" parent="1">
          <mxGeometry x="320" y="520" width="20" height="20" as="geometry" />
        </mxCell>
        <mxCell id="hwOIIoW1mXE2I7TnD8qz-45" value="" style="ellipse;whiteSpace=wrap;html=1;aspect=fixed;" vertex="1" parent="1">
          <mxGeometry x="350" y="520" width="20" height="20" as="geometry" />
        </mxCell>
        <mxCell id="hwOIIoW1mXE2I7TnD8qz-46" value="" style="ellipse;whiteSpace=wrap;html=1;aspect=fixed;" vertex="1" parent="1">
          <mxGeometry x="380" y="520" width="20" height="20" as="geometry" />
        </mxCell>
        <mxCell id="hwOIIoW1mXE2I7TnD8qz-47" value="" style="ellipse;whiteSpace=wrap;html=1;aspect=fixed;" vertex="1" parent="1">
          <mxGeometry x="410" y="520" width="20" height="20" as="geometry" />
        </mxCell>
        <mxCell id="hwOIIoW1mXE2I7TnD8qz-48" value="" style="endArrow=none;html=1;rounded=0;" edge="1" parent="1">
          <mxGeometry width="50" height="50" relative="1" as="geometry">
            <mxPoint x="265" y="535" as="sourcePoint" />
            <mxPoint x="275" y="525" as="targetPoint" />
          </mxGeometry>
        </mxCell>
        <mxCell id="hwOIIoW1mXE2I7TnD8qz-49" value="" style="endArrow=none;html=1;rounded=0;" edge="1" parent="1">
          <mxGeometry width="50" height="50" relative="1" as="geometry">
            <mxPoint x="275" y="535" as="sourcePoint" />
            <mxPoint x="265" y="525" as="targetPoint" />
          </mxGeometry>
        </mxCell>
        <mxCell id="hwOIIoW1mXE2I7TnD8qz-50" value="" style="endArrow=none;html=1;rounded=0;" edge="1" parent="1">
          <mxGeometry width="50" height="50" relative="1" as="geometry">
            <mxPoint x="355" y="535" as="sourcePoint" />
            <mxPoint x="365" y="525" as="targetPoint" />
          </mxGeometry>
        </mxCell>
        <mxCell id="hwOIIoW1mXE2I7TnD8qz-51" value="" style="endArrow=none;html=1;rounded=0;" edge="1" parent="1">
          <mxGeometry width="50" height="50" relative="1" as="geometry">
            <mxPoint x="365" y="535" as="sourcePoint" />
            <mxPoint x="355" y="525" as="targetPoint" />
          </mxGeometry>
        </mxCell>
        <mxCell id="hwOIIoW1mXE2I7TnD8qz-52" value="" style="rounded=1;whiteSpace=wrap;html=1;" vertex="1" parent="1">
          <mxGeometry x="250" y="280" width="190" height="20" as="geometry" />
        </mxCell>
        <mxCell id="hwOIIoW1mXE2I7TnD8qz-53" value="" style="ellipse;whiteSpace=wrap;html=1;aspect=fixed;" vertex="1" parent="1">
          <mxGeometry x="260" y="280" width="20" height="20" as="geometry" />
        </mxCell>
        <mxCell id="hwOIIoW1mXE2I7TnD8qz-54" value="" style="ellipse;whiteSpace=wrap;html=1;aspect=fixed;" vertex="1" parent="1">
          <mxGeometry x="290" y="280" width="20" height="20" as="geometry" />
        </mxCell>
        <mxCell id="hwOIIoW1mXE2I7TnD8qz-55" value="" style="ellipse;whiteSpace=wrap;html=1;aspect=fixed;" vertex="1" parent="1">
          <mxGeometry x="320" y="280" width="20" height="20" as="geometry" />
        </mxCell>
        <mxCell id="hwOIIoW1mXE2I7TnD8qz-56" value="" style="ellipse;whiteSpace=wrap;html=1;aspect=fixed;" vertex="1" parent="1">
          <mxGeometry x="350" y="280" width="20" height="20" as="geometry" />
        </mxCell>
        <mxCell id="hwOIIoW1mXE2I7TnD8qz-57" value="" style="ellipse;whiteSpace=wrap;html=1;aspect=fixed;" vertex="1" parent="1">
          <mxGeometry x="380" y="280" width="20" height="20" as="geometry" />
        </mxCell>
        <mxCell id="hwOIIoW1mXE2I7TnD8qz-58" value="" style="ellipse;whiteSpace=wrap;html=1;aspect=fixed;" vertex="1" parent="1">
          <mxGeometry x="410" y="280" width="20" height="20" as="geometry" />
        </mxCell>
        <mxCell id="hwOIIoW1mXE2I7TnD8qz-59" value="" style="endArrow=none;html=1;rounded=0;" edge="1" parent="1">
          <mxGeometry width="50" height="50" relative="1" as="geometry">
            <mxPoint x="265" y="295" as="sourcePoint" />
            <mxPoint x="275" y="285" as="targetPoint" />
          </mxGeometry>
        </mxCell>
        <mxCell id="hwOIIoW1mXE2I7TnD8qz-60" value="" style="endArrow=none;html=1;rounded=0;" edge="1" parent="1">
          <mxGeometry width="50" height="50" relative="1" as="geometry">
            <mxPoint x="275" y="295" as="sourcePoint" />
            <mxPoint x="265" y="285" as="targetPoint" />
          </mxGeometry>
        </mxCell>
        <mxCell id="hwOIIoW1mXE2I7TnD8qz-61" value="" style="endArrow=none;html=1;rounded=0;" edge="1" parent="1">
          <mxGeometry width="50" height="50" relative="1" as="geometry">
            <mxPoint x="355" y="295" as="sourcePoint" />
            <mxPoint x="365" y="285" as="targetPoint" />
          </mxGeometry>
        </mxCell>
        <mxCell id="hwOIIoW1mXE2I7TnD8qz-62" value="" style="endArrow=none;html=1;rounded=0;" edge="1" parent="1">
          <mxGeometry width="50" height="50" relative="1" as="geometry">
            <mxPoint x="365" y="295" as="sourcePoint" />
            <mxPoint x="355" y="285" as="targetPoint" />
          </mxGeometry>
        </mxCell>
        <mxCell id="hwOIIoW1mXE2I7TnD8qz-63" value="Select Only N^th Time-Frame Features" style="shape=process;whiteSpace=wrap;html=1;backgroundOutline=1;" vertex="1" parent="1">
          <mxGeometry x="230" y="560" width="230" height="30" as="geometry" />
        </mxCell>
        <mxCell id="hwOIIoW1mXE2I7TnD8qz-194" value="" style="rounded=1;whiteSpace=wrap;html=1;" vertex="1" parent="1">
          <mxGeometry x="241.5" y="607" width="207" height="80" as="geometry" />
        </mxCell>
        <mxCell id="hwOIIoW1mXE2I7TnD8qz-195" value="" style="ellipse;whiteSpace=wrap;html=1;aspect=fixed;" vertex="1" parent="1">
          <mxGeometry x="255" y="617" width="20" height="20" as="geometry" />
        </mxCell>
        <mxCell id="hwOIIoW1mXE2I7TnD8qz-196" value="" style="ellipse;whiteSpace=wrap;html=1;aspect=fixed;" vertex="1" parent="1">
          <mxGeometry x="293" y="617" width="20" height="20" as="geometry" />
        </mxCell>
        <mxCell id="hwOIIoW1mXE2I7TnD8qz-197" value="" style="ellipse;whiteSpace=wrap;html=1;aspect=fixed;" vertex="1" parent="1">
          <mxGeometry x="328" y="617" width="20" height="20" as="geometry" />
        </mxCell>
        <mxCell id="hwOIIoW1mXE2I7TnD8qz-198" value="" style="ellipse;whiteSpace=wrap;html=1;aspect=fixed;" vertex="1" parent="1">
          <mxGeometry x="365" y="617" width="20" height="20" as="geometry" />
        </mxCell>
        <mxCell id="hwOIIoW1mXE2I7TnD8qz-199" value="" style="ellipse;whiteSpace=wrap;html=1;aspect=fixed;" vertex="1" parent="1">
          <mxGeometry x="404" y="617" width="20" height="20" as="geometry" />
        </mxCell>
        <mxCell id="hwOIIoW1mXE2I7TnD8qz-200" value="" style="ellipse;whiteSpace=wrap;html=1;aspect=fixed;" vertex="1" parent="1">
          <mxGeometry x="275" y="657" width="20" height="20" as="geometry" />
        </mxCell>
        <mxCell id="hwOIIoW1mXE2I7TnD8qz-201" value="" style="ellipse;whiteSpace=wrap;html=1;aspect=fixed;" vertex="1" parent="1">
          <mxGeometry x="313" y="657" width="20" height="20" as="geometry" />
        </mxCell>
        <mxCell id="hwOIIoW1mXE2I7TnD8qz-202" value="" style="ellipse;whiteSpace=wrap;html=1;aspect=fixed;" vertex="1" parent="1">
          <mxGeometry x="352" y="657" width="20" height="20" as="geometry" />
        </mxCell>
        <mxCell id="hwOIIoW1mXE2I7TnD8qz-203" value="" style="ellipse;whiteSpace=wrap;html=1;aspect=fixed;" vertex="1" parent="1">
          <mxGeometry x="388" y="657" width="20" height="20" as="geometry" />
        </mxCell>
        <mxCell id="hwOIIoW1mXE2I7TnD8qz-204" value="" style="endArrow=none;html=1;rounded=0;entryX=0.5;entryY=1;entryDx=0;entryDy=0;exitX=0.5;exitY=0;exitDx=0;exitDy=0;" edge="1" parent="1" source="hwOIIoW1mXE2I7TnD8qz-200" target="hwOIIoW1mXE2I7TnD8qz-195">
          <mxGeometry width="50" height="50" relative="1" as="geometry">
            <mxPoint x="235" y="607" as="sourcePoint" />
            <mxPoint x="285" y="557" as="targetPoint" />
          </mxGeometry>
        </mxCell>
        <mxCell id="hwOIIoW1mXE2I7TnD8qz-205" value="" style="endArrow=none;html=1;rounded=0;entryX=0.5;entryY=1;entryDx=0;entryDy=0;exitX=0.5;exitY=0;exitDx=0;exitDy=0;" edge="1" parent="1" source="hwOIIoW1mXE2I7TnD8qz-201" target="hwOIIoW1mXE2I7TnD8qz-195">
          <mxGeometry width="50" height="50" relative="1" as="geometry">
            <mxPoint x="235" y="697" as="sourcePoint" />
            <mxPoint x="285" y="647" as="targetPoint" />
          </mxGeometry>
        </mxCell>
        <mxCell id="hwOIIoW1mXE2I7TnD8qz-206" value="" style="endArrow=none;html=1;rounded=0;entryX=0.5;entryY=1;entryDx=0;entryDy=0;exitX=0.5;exitY=0;exitDx=0;exitDy=0;" edge="1" parent="1" source="hwOIIoW1mXE2I7TnD8qz-202" target="hwOIIoW1mXE2I7TnD8qz-195">
          <mxGeometry width="50" height="50" relative="1" as="geometry">
            <mxPoint x="225" y="727" as="sourcePoint" />
            <mxPoint x="275" y="677" as="targetPoint" />
          </mxGeometry>
        </mxCell>
        <mxCell id="hwOIIoW1mXE2I7TnD8qz-207" value="" style="endArrow=none;html=1;rounded=0;entryX=0.5;entryY=1;entryDx=0;entryDy=0;exitX=0.5;exitY=0;exitDx=0;exitDy=0;" edge="1" parent="1" source="hwOIIoW1mXE2I7TnD8qz-203" target="hwOIIoW1mXE2I7TnD8qz-195">
          <mxGeometry width="50" height="50" relative="1" as="geometry">
            <mxPoint x="215" y="697" as="sourcePoint" />
            <mxPoint x="265" y="647" as="targetPoint" />
          </mxGeometry>
        </mxCell>
        <mxCell id="hwOIIoW1mXE2I7TnD8qz-208" value="" style="endArrow=none;html=1;rounded=0;entryX=0.5;entryY=1;entryDx=0;entryDy=0;exitX=0.5;exitY=0;exitDx=0;exitDy=0;" edge="1" parent="1" source="hwOIIoW1mXE2I7TnD8qz-200" target="hwOIIoW1mXE2I7TnD8qz-196">
          <mxGeometry width="50" height="50" relative="1" as="geometry">
            <mxPoint x="215" y="717" as="sourcePoint" />
            <mxPoint x="265" y="667" as="targetPoint" />
          </mxGeometry>
        </mxCell>
        <mxCell id="hwOIIoW1mXE2I7TnD8qz-209" value="" style="endArrow=none;html=1;rounded=0;entryX=0.5;entryY=1;entryDx=0;entryDy=0;exitX=0.5;exitY=0;exitDx=0;exitDy=0;" edge="1" parent="1" source="hwOIIoW1mXE2I7TnD8qz-201" target="hwOIIoW1mXE2I7TnD8qz-196">
          <mxGeometry width="50" height="50" relative="1" as="geometry">
            <mxPoint x="225" y="717" as="sourcePoint" />
            <mxPoint x="275" y="667" as="targetPoint" />
          </mxGeometry>
        </mxCell>
        <mxCell id="hwOIIoW1mXE2I7TnD8qz-210" value="" style="endArrow=none;html=1;rounded=0;entryX=0.5;entryY=1;entryDx=0;entryDy=0;exitX=0.5;exitY=0;exitDx=0;exitDy=0;" edge="1" parent="1" source="hwOIIoW1mXE2I7TnD8qz-202" target="hwOIIoW1mXE2I7TnD8qz-196">
          <mxGeometry width="50" height="50" relative="1" as="geometry">
            <mxPoint x="295" y="737" as="sourcePoint" />
            <mxPoint x="345" y="687" as="targetPoint" />
          </mxGeometry>
        </mxCell>
        <mxCell id="hwOIIoW1mXE2I7TnD8qz-211" value="" style="endArrow=none;html=1;rounded=0;entryX=0.5;entryY=1;entryDx=0;entryDy=0;exitX=0.5;exitY=0;exitDx=0;exitDy=0;" edge="1" parent="1" source="hwOIIoW1mXE2I7TnD8qz-203" target="hwOIIoW1mXE2I7TnD8qz-196">
          <mxGeometry width="50" height="50" relative="1" as="geometry">
            <mxPoint x="225" y="707" as="sourcePoint" />
            <mxPoint x="275" y="657" as="targetPoint" />
          </mxGeometry>
        </mxCell>
        <mxCell id="hwOIIoW1mXE2I7TnD8qz-212" value="" style="endArrow=none;html=1;rounded=0;entryX=0.5;entryY=1;entryDx=0;entryDy=0;exitX=0.5;exitY=0;exitDx=0;exitDy=0;" edge="1" parent="1" source="hwOIIoW1mXE2I7TnD8qz-200" target="hwOIIoW1mXE2I7TnD8qz-197">
          <mxGeometry width="50" height="50" relative="1" as="geometry">
            <mxPoint x="285" y="687" as="sourcePoint" />
            <mxPoint x="335" y="637" as="targetPoint" />
          </mxGeometry>
        </mxCell>
        <mxCell id="hwOIIoW1mXE2I7TnD8qz-213" value="" style="endArrow=none;html=1;rounded=0;entryX=0.5;entryY=1;entryDx=0;entryDy=0;" edge="1" parent="1" target="hwOIIoW1mXE2I7TnD8qz-197">
          <mxGeometry width="50" height="50" relative="1" as="geometry">
            <mxPoint x="325" y="657" as="sourcePoint" />
            <mxPoint x="345" y="647" as="targetPoint" />
          </mxGeometry>
        </mxCell>
        <mxCell id="hwOIIoW1mXE2I7TnD8qz-214" value="" style="endArrow=none;html=1;rounded=0;entryX=0.5;entryY=1;entryDx=0;entryDy=0;exitX=0.5;exitY=0;exitDx=0;exitDy=0;" edge="1" parent="1" source="hwOIIoW1mXE2I7TnD8qz-202" target="hwOIIoW1mXE2I7TnD8qz-197">
          <mxGeometry width="50" height="50" relative="1" as="geometry">
            <mxPoint x="295" y="737" as="sourcePoint" />
            <mxPoint x="345" y="687" as="targetPoint" />
          </mxGeometry>
        </mxCell>
        <mxCell id="hwOIIoW1mXE2I7TnD8qz-215" value="" style="endArrow=none;html=1;rounded=0;entryX=0.5;entryY=1;entryDx=0;entryDy=0;exitX=0.5;exitY=0;exitDx=0;exitDy=0;" edge="1" parent="1" source="hwOIIoW1mXE2I7TnD8qz-203" target="hwOIIoW1mXE2I7TnD8qz-197">
          <mxGeometry width="50" height="50" relative="1" as="geometry">
            <mxPoint x="295" y="747" as="sourcePoint" />
            <mxPoint x="345" y="697" as="targetPoint" />
          </mxGeometry>
        </mxCell>
        <mxCell id="hwOIIoW1mXE2I7TnD8qz-216" value="" style="endArrow=none;html=1;rounded=0;entryX=0.5;entryY=1;entryDx=0;entryDy=0;exitX=0.5;exitY=0;exitDx=0;exitDy=0;" edge="1" parent="1" source="hwOIIoW1mXE2I7TnD8qz-200" target="hwOIIoW1mXE2I7TnD8qz-198">
          <mxGeometry width="50" height="50" relative="1" as="geometry">
            <mxPoint x="325" y="747" as="sourcePoint" />
            <mxPoint x="375" y="697" as="targetPoint" />
          </mxGeometry>
        </mxCell>
        <mxCell id="hwOIIoW1mXE2I7TnD8qz-217" value="" style="endArrow=none;html=1;rounded=0;entryX=0.5;entryY=1;entryDx=0;entryDy=0;exitX=0.5;exitY=0;exitDx=0;exitDy=0;" edge="1" parent="1" source="hwOIIoW1mXE2I7TnD8qz-201" target="hwOIIoW1mXE2I7TnD8qz-198">
          <mxGeometry width="50" height="50" relative="1" as="geometry">
            <mxPoint x="305" y="737" as="sourcePoint" />
            <mxPoint x="355" y="687" as="targetPoint" />
          </mxGeometry>
        </mxCell>
        <mxCell id="hwOIIoW1mXE2I7TnD8qz-218" value="" style="endArrow=none;html=1;rounded=0;exitX=0.5;exitY=0;exitDx=0;exitDy=0;" edge="1" parent="1" source="hwOIIoW1mXE2I7TnD8qz-202">
          <mxGeometry width="50" height="50" relative="1" as="geometry">
            <mxPoint x="315" y="727" as="sourcePoint" />
            <mxPoint x="375" y="637" as="targetPoint" />
          </mxGeometry>
        </mxCell>
        <mxCell id="hwOIIoW1mXE2I7TnD8qz-219" value="" style="endArrow=none;html=1;rounded=0;entryX=0.5;entryY=1;entryDx=0;entryDy=0;exitX=0.5;exitY=0;exitDx=0;exitDy=0;" edge="1" parent="1" source="hwOIIoW1mXE2I7TnD8qz-203" target="hwOIIoW1mXE2I7TnD8qz-198">
          <mxGeometry width="50" height="50" relative="1" as="geometry">
            <mxPoint x="315" y="747" as="sourcePoint" />
            <mxPoint x="365" y="697" as="targetPoint" />
          </mxGeometry>
        </mxCell>
        <mxCell id="hwOIIoW1mXE2I7TnD8qz-220" value="" style="endArrow=none;html=1;rounded=0;entryX=0.5;entryY=1;entryDx=0;entryDy=0;exitX=0.5;exitY=0;exitDx=0;exitDy=0;" edge="1" parent="1" source="hwOIIoW1mXE2I7TnD8qz-200" target="hwOIIoW1mXE2I7TnD8qz-199">
          <mxGeometry width="50" height="50" relative="1" as="geometry">
            <mxPoint x="305" y="737" as="sourcePoint" />
            <mxPoint x="355" y="687" as="targetPoint" />
          </mxGeometry>
        </mxCell>
        <mxCell id="hwOIIoW1mXE2I7TnD8qz-221" value="" style="endArrow=none;html=1;rounded=0;entryX=0.5;entryY=1;entryDx=0;entryDy=0;exitX=0.5;exitY=0;exitDx=0;exitDy=0;" edge="1" parent="1" source="hwOIIoW1mXE2I7TnD8qz-201" target="hwOIIoW1mXE2I7TnD8qz-199">
          <mxGeometry width="50" height="50" relative="1" as="geometry">
            <mxPoint x="355" y="757" as="sourcePoint" />
            <mxPoint x="405" y="707" as="targetPoint" />
          </mxGeometry>
        </mxCell>
        <mxCell id="hwOIIoW1mXE2I7TnD8qz-222" value="" style="endArrow=none;html=1;rounded=0;entryX=0.5;entryY=1;entryDx=0;entryDy=0;exitX=0.5;exitY=0;exitDx=0;exitDy=0;" edge="1" parent="1" source="hwOIIoW1mXE2I7TnD8qz-202" target="hwOIIoW1mXE2I7TnD8qz-199">
          <mxGeometry width="50" height="50" relative="1" as="geometry">
            <mxPoint x="335" y="737" as="sourcePoint" />
            <mxPoint x="385" y="687" as="targetPoint" />
          </mxGeometry>
        </mxCell>
        <mxCell id="hwOIIoW1mXE2I7TnD8qz-223" value="" style="endArrow=none;html=1;rounded=0;entryX=0.5;entryY=1;entryDx=0;entryDy=0;exitX=0.5;exitY=0;exitDx=0;exitDy=0;" edge="1" parent="1" source="hwOIIoW1mXE2I7TnD8qz-203" target="hwOIIoW1mXE2I7TnD8qz-199">
          <mxGeometry width="50" height="50" relative="1" as="geometry">
            <mxPoint x="395" y="737" as="sourcePoint" />
            <mxPoint x="445" y="687" as="targetPoint" />
          </mxGeometry>
        </mxCell>
        <mxCell id="hwOIIoW1mXE2I7TnD8qz-224" value="" style="rounded=1;whiteSpace=wrap;html=1;" vertex="1" parent="1">
          <mxGeometry x="122" y="730" width="207" height="80" as="geometry" />
        </mxCell>
        <mxCell id="hwOIIoW1mXE2I7TnD8qz-225" value="" style="ellipse;whiteSpace=wrap;html=1;aspect=fixed;" vertex="1" parent="1">
          <mxGeometry x="142" y="740" width="20" height="20" as="geometry" />
        </mxCell>
        <mxCell id="hwOIIoW1mXE2I7TnD8qz-226" value="" style="ellipse;whiteSpace=wrap;html=1;aspect=fixed;" vertex="1" parent="1">
          <mxGeometry x="180" y="740" width="20" height="20" as="geometry" />
        </mxCell>
        <mxCell id="hwOIIoW1mXE2I7TnD8qz-227" value="" style="ellipse;whiteSpace=wrap;html=1;aspect=fixed;" vertex="1" parent="1">
          <mxGeometry x="215" y="740" width="20" height="20" as="geometry" />
        </mxCell>
        <mxCell id="hwOIIoW1mXE2I7TnD8qz-228" value="" style="ellipse;whiteSpace=wrap;html=1;aspect=fixed;" vertex="1" parent="1">
          <mxGeometry x="252" y="740" width="20" height="20" as="geometry" />
        </mxCell>
        <mxCell id="hwOIIoW1mXE2I7TnD8qz-229" value="" style="ellipse;whiteSpace=wrap;html=1;aspect=fixed;" vertex="1" parent="1">
          <mxGeometry x="291" y="740" width="20" height="20" as="geometry" />
        </mxCell>
        <mxCell id="hwOIIoW1mXE2I7TnD8qz-230" value="" style="ellipse;whiteSpace=wrap;html=1;aspect=fixed;" vertex="1" parent="1">
          <mxGeometry x="162" y="780" width="20" height="20" as="geometry" />
        </mxCell>
        <mxCell id="hwOIIoW1mXE2I7TnD8qz-231" value="" style="ellipse;whiteSpace=wrap;html=1;aspect=fixed;" vertex="1" parent="1">
          <mxGeometry x="200" y="780" width="20" height="20" as="geometry" />
        </mxCell>
        <mxCell id="hwOIIoW1mXE2I7TnD8qz-232" value="" style="ellipse;whiteSpace=wrap;html=1;aspect=fixed;" vertex="1" parent="1">
          <mxGeometry x="239" y="780" width="20" height="20" as="geometry" />
        </mxCell>
        <mxCell id="hwOIIoW1mXE2I7TnD8qz-233" value="" style="ellipse;whiteSpace=wrap;html=1;aspect=fixed;" vertex="1" parent="1">
          <mxGeometry x="275" y="780" width="20" height="20" as="geometry" />
        </mxCell>
        <mxCell id="hwOIIoW1mXE2I7TnD8qz-234" value="" style="endArrow=none;html=1;rounded=0;entryX=0.5;entryY=1;entryDx=0;entryDy=0;exitX=0.5;exitY=0;exitDx=0;exitDy=0;" edge="1" parent="1" source="hwOIIoW1mXE2I7TnD8qz-230" target="hwOIIoW1mXE2I7TnD8qz-225">
          <mxGeometry width="50" height="50" relative="1" as="geometry">
            <mxPoint x="122" y="730" as="sourcePoint" />
            <mxPoint x="172" y="680" as="targetPoint" />
          </mxGeometry>
        </mxCell>
        <mxCell id="hwOIIoW1mXE2I7TnD8qz-235" value="" style="endArrow=none;html=1;rounded=0;entryX=0.5;entryY=1;entryDx=0;entryDy=0;exitX=0.5;exitY=0;exitDx=0;exitDy=0;" edge="1" parent="1" source="hwOIIoW1mXE2I7TnD8qz-231" target="hwOIIoW1mXE2I7TnD8qz-225">
          <mxGeometry width="50" height="50" relative="1" as="geometry">
            <mxPoint x="122" y="820" as="sourcePoint" />
            <mxPoint x="172" y="770" as="targetPoint" />
          </mxGeometry>
        </mxCell>
        <mxCell id="hwOIIoW1mXE2I7TnD8qz-236" value="" style="endArrow=none;html=1;rounded=0;entryX=0.5;entryY=1;entryDx=0;entryDy=0;exitX=0.5;exitY=0;exitDx=0;exitDy=0;" edge="1" parent="1" source="hwOIIoW1mXE2I7TnD8qz-232" target="hwOIIoW1mXE2I7TnD8qz-225">
          <mxGeometry width="50" height="50" relative="1" as="geometry">
            <mxPoint x="112" y="850" as="sourcePoint" />
            <mxPoint x="162" y="800" as="targetPoint" />
          </mxGeometry>
        </mxCell>
        <mxCell id="hwOIIoW1mXE2I7TnD8qz-237" value="" style="endArrow=none;html=1;rounded=0;entryX=0.5;entryY=1;entryDx=0;entryDy=0;exitX=0.5;exitY=0;exitDx=0;exitDy=0;" edge="1" parent="1" source="hwOIIoW1mXE2I7TnD8qz-233" target="hwOIIoW1mXE2I7TnD8qz-225">
          <mxGeometry width="50" height="50" relative="1" as="geometry">
            <mxPoint x="102" y="820" as="sourcePoint" />
            <mxPoint x="152" y="770" as="targetPoint" />
          </mxGeometry>
        </mxCell>
        <mxCell id="hwOIIoW1mXE2I7TnD8qz-238" value="" style="endArrow=none;html=1;rounded=0;entryX=0.5;entryY=1;entryDx=0;entryDy=0;exitX=0.5;exitY=0;exitDx=0;exitDy=0;" edge="1" parent="1" source="hwOIIoW1mXE2I7TnD8qz-230" target="hwOIIoW1mXE2I7TnD8qz-226">
          <mxGeometry width="50" height="50" relative="1" as="geometry">
            <mxPoint x="102" y="840" as="sourcePoint" />
            <mxPoint x="152" y="790" as="targetPoint" />
          </mxGeometry>
        </mxCell>
        <mxCell id="hwOIIoW1mXE2I7TnD8qz-239" value="" style="endArrow=none;html=1;rounded=0;entryX=0.5;entryY=1;entryDx=0;entryDy=0;exitX=0.5;exitY=0;exitDx=0;exitDy=0;" edge="1" parent="1" source="hwOIIoW1mXE2I7TnD8qz-231" target="hwOIIoW1mXE2I7TnD8qz-226">
          <mxGeometry width="50" height="50" relative="1" as="geometry">
            <mxPoint x="112" y="840" as="sourcePoint" />
            <mxPoint x="162" y="790" as="targetPoint" />
          </mxGeometry>
        </mxCell>
        <mxCell id="hwOIIoW1mXE2I7TnD8qz-240" value="" style="endArrow=none;html=1;rounded=0;entryX=0.5;entryY=1;entryDx=0;entryDy=0;exitX=0.5;exitY=0;exitDx=0;exitDy=0;" edge="1" parent="1" source="hwOIIoW1mXE2I7TnD8qz-232" target="hwOIIoW1mXE2I7TnD8qz-226">
          <mxGeometry width="50" height="50" relative="1" as="geometry">
            <mxPoint x="182" y="860" as="sourcePoint" />
            <mxPoint x="232" y="810" as="targetPoint" />
          </mxGeometry>
        </mxCell>
        <mxCell id="hwOIIoW1mXE2I7TnD8qz-241" value="" style="endArrow=none;html=1;rounded=0;entryX=0.5;entryY=1;entryDx=0;entryDy=0;exitX=0.5;exitY=0;exitDx=0;exitDy=0;" edge="1" parent="1" source="hwOIIoW1mXE2I7TnD8qz-233" target="hwOIIoW1mXE2I7TnD8qz-226">
          <mxGeometry width="50" height="50" relative="1" as="geometry">
            <mxPoint x="112" y="830" as="sourcePoint" />
            <mxPoint x="162" y="780" as="targetPoint" />
          </mxGeometry>
        </mxCell>
        <mxCell id="hwOIIoW1mXE2I7TnD8qz-242" value="" style="endArrow=none;html=1;rounded=0;entryX=0.5;entryY=1;entryDx=0;entryDy=0;exitX=0.5;exitY=0;exitDx=0;exitDy=0;" edge="1" parent="1" source="hwOIIoW1mXE2I7TnD8qz-230" target="hwOIIoW1mXE2I7TnD8qz-227">
          <mxGeometry width="50" height="50" relative="1" as="geometry">
            <mxPoint x="172" y="810" as="sourcePoint" />
            <mxPoint x="222" y="760" as="targetPoint" />
          </mxGeometry>
        </mxCell>
        <mxCell id="hwOIIoW1mXE2I7TnD8qz-243" value="" style="endArrow=none;html=1;rounded=0;entryX=0.5;entryY=1;entryDx=0;entryDy=0;" edge="1" parent="1" target="hwOIIoW1mXE2I7TnD8qz-227">
          <mxGeometry width="50" height="50" relative="1" as="geometry">
            <mxPoint x="212" y="780" as="sourcePoint" />
            <mxPoint x="232" y="770" as="targetPoint" />
          </mxGeometry>
        </mxCell>
        <mxCell id="hwOIIoW1mXE2I7TnD8qz-244" value="" style="endArrow=none;html=1;rounded=0;entryX=0.5;entryY=1;entryDx=0;entryDy=0;exitX=0.5;exitY=0;exitDx=0;exitDy=0;" edge="1" parent="1" source="hwOIIoW1mXE2I7TnD8qz-232" target="hwOIIoW1mXE2I7TnD8qz-227">
          <mxGeometry width="50" height="50" relative="1" as="geometry">
            <mxPoint x="182" y="860" as="sourcePoint" />
            <mxPoint x="232" y="810" as="targetPoint" />
          </mxGeometry>
        </mxCell>
        <mxCell id="hwOIIoW1mXE2I7TnD8qz-245" value="" style="endArrow=none;html=1;rounded=0;entryX=0.5;entryY=1;entryDx=0;entryDy=0;exitX=0.5;exitY=0;exitDx=0;exitDy=0;" edge="1" parent="1" source="hwOIIoW1mXE2I7TnD8qz-233" target="hwOIIoW1mXE2I7TnD8qz-227">
          <mxGeometry width="50" height="50" relative="1" as="geometry">
            <mxPoint x="182" y="870" as="sourcePoint" />
            <mxPoint x="232" y="820" as="targetPoint" />
          </mxGeometry>
        </mxCell>
        <mxCell id="hwOIIoW1mXE2I7TnD8qz-246" value="" style="endArrow=none;html=1;rounded=0;entryX=0.5;entryY=1;entryDx=0;entryDy=0;exitX=0.5;exitY=0;exitDx=0;exitDy=0;" edge="1" parent="1" source="hwOIIoW1mXE2I7TnD8qz-230" target="hwOIIoW1mXE2I7TnD8qz-228">
          <mxGeometry width="50" height="50" relative="1" as="geometry">
            <mxPoint x="212" y="870" as="sourcePoint" />
            <mxPoint x="262" y="820" as="targetPoint" />
          </mxGeometry>
        </mxCell>
        <mxCell id="hwOIIoW1mXE2I7TnD8qz-247" value="" style="endArrow=none;html=1;rounded=0;entryX=0.5;entryY=1;entryDx=0;entryDy=0;exitX=0.5;exitY=0;exitDx=0;exitDy=0;" edge="1" parent="1" source="hwOIIoW1mXE2I7TnD8qz-231" target="hwOIIoW1mXE2I7TnD8qz-228">
          <mxGeometry width="50" height="50" relative="1" as="geometry">
            <mxPoint x="192" y="860" as="sourcePoint" />
            <mxPoint x="242" y="810" as="targetPoint" />
          </mxGeometry>
        </mxCell>
        <mxCell id="hwOIIoW1mXE2I7TnD8qz-248" value="" style="endArrow=none;html=1;rounded=0;exitX=0.5;exitY=0;exitDx=0;exitDy=0;" edge="1" parent="1" source="hwOIIoW1mXE2I7TnD8qz-232">
          <mxGeometry width="50" height="50" relative="1" as="geometry">
            <mxPoint x="202" y="850" as="sourcePoint" />
            <mxPoint x="262" y="760" as="targetPoint" />
          </mxGeometry>
        </mxCell>
        <mxCell id="hwOIIoW1mXE2I7TnD8qz-249" value="" style="endArrow=none;html=1;rounded=0;entryX=0.5;entryY=1;entryDx=0;entryDy=0;exitX=0.5;exitY=0;exitDx=0;exitDy=0;" edge="1" parent="1" source="hwOIIoW1mXE2I7TnD8qz-233" target="hwOIIoW1mXE2I7TnD8qz-228">
          <mxGeometry width="50" height="50" relative="1" as="geometry">
            <mxPoint x="202" y="870" as="sourcePoint" />
            <mxPoint x="252" y="820" as="targetPoint" />
          </mxGeometry>
        </mxCell>
        <mxCell id="hwOIIoW1mXE2I7TnD8qz-250" value="" style="endArrow=none;html=1;rounded=0;entryX=0.5;entryY=1;entryDx=0;entryDy=0;exitX=0.5;exitY=0;exitDx=0;exitDy=0;" edge="1" parent="1" source="hwOIIoW1mXE2I7TnD8qz-230" target="hwOIIoW1mXE2I7TnD8qz-229">
          <mxGeometry width="50" height="50" relative="1" as="geometry">
            <mxPoint x="192" y="860" as="sourcePoint" />
            <mxPoint x="242" y="810" as="targetPoint" />
          </mxGeometry>
        </mxCell>
        <mxCell id="hwOIIoW1mXE2I7TnD8qz-251" value="" style="endArrow=none;html=1;rounded=0;entryX=0.5;entryY=1;entryDx=0;entryDy=0;exitX=0.5;exitY=0;exitDx=0;exitDy=0;" edge="1" parent="1" source="hwOIIoW1mXE2I7TnD8qz-231" target="hwOIIoW1mXE2I7TnD8qz-229">
          <mxGeometry width="50" height="50" relative="1" as="geometry">
            <mxPoint x="242" y="880" as="sourcePoint" />
            <mxPoint x="292" y="830" as="targetPoint" />
          </mxGeometry>
        </mxCell>
        <mxCell id="hwOIIoW1mXE2I7TnD8qz-252" value="" style="endArrow=none;html=1;rounded=0;entryX=0.5;entryY=1;entryDx=0;entryDy=0;exitX=0.5;exitY=0;exitDx=0;exitDy=0;" edge="1" parent="1" source="hwOIIoW1mXE2I7TnD8qz-232" target="hwOIIoW1mXE2I7TnD8qz-229">
          <mxGeometry width="50" height="50" relative="1" as="geometry">
            <mxPoint x="222" y="860" as="sourcePoint" />
            <mxPoint x="272" y="810" as="targetPoint" />
          </mxGeometry>
        </mxCell>
        <mxCell id="hwOIIoW1mXE2I7TnD8qz-253" value="" style="endArrow=none;html=1;rounded=0;entryX=0.5;entryY=1;entryDx=0;entryDy=0;exitX=0.5;exitY=0;exitDx=0;exitDy=0;" edge="1" parent="1" source="hwOIIoW1mXE2I7TnD8qz-233" target="hwOIIoW1mXE2I7TnD8qz-229">
          <mxGeometry width="50" height="50" relative="1" as="geometry">
            <mxPoint x="282" y="860" as="sourcePoint" />
            <mxPoint x="332" y="810" as="targetPoint" />
          </mxGeometry>
        </mxCell>
        <mxCell id="hwOIIoW1mXE2I7TnD8qz-254" value="" style="rounded=1;whiteSpace=wrap;html=1;" vertex="1" parent="1">
          <mxGeometry x="361" y="730" width="207" height="80" as="geometry" />
        </mxCell>
        <mxCell id="hwOIIoW1mXE2I7TnD8qz-255" value="" style="ellipse;whiteSpace=wrap;html=1;aspect=fixed;" vertex="1" parent="1">
          <mxGeometry x="381" y="740" width="20" height="20" as="geometry" />
        </mxCell>
        <mxCell id="hwOIIoW1mXE2I7TnD8qz-256" value="" style="ellipse;whiteSpace=wrap;html=1;aspect=fixed;" vertex="1" parent="1">
          <mxGeometry x="419" y="740" width="20" height="20" as="geometry" />
        </mxCell>
        <mxCell id="hwOIIoW1mXE2I7TnD8qz-257" value="" style="ellipse;whiteSpace=wrap;html=1;aspect=fixed;" vertex="1" parent="1">
          <mxGeometry x="454" y="740" width="20" height="20" as="geometry" />
        </mxCell>
        <mxCell id="hwOIIoW1mXE2I7TnD8qz-258" value="" style="ellipse;whiteSpace=wrap;html=1;aspect=fixed;" vertex="1" parent="1">
          <mxGeometry x="491" y="740" width="20" height="20" as="geometry" />
        </mxCell>
        <mxCell id="hwOIIoW1mXE2I7TnD8qz-259" value="" style="ellipse;whiteSpace=wrap;html=1;aspect=fixed;" vertex="1" parent="1">
          <mxGeometry x="530" y="740" width="20" height="20" as="geometry" />
        </mxCell>
        <mxCell id="hwOIIoW1mXE2I7TnD8qz-260" value="" style="ellipse;whiteSpace=wrap;html=1;aspect=fixed;" vertex="1" parent="1">
          <mxGeometry x="401" y="780" width="20" height="20" as="geometry" />
        </mxCell>
        <mxCell id="hwOIIoW1mXE2I7TnD8qz-261" value="" style="ellipse;whiteSpace=wrap;html=1;aspect=fixed;" vertex="1" parent="1">
          <mxGeometry x="439" y="780" width="20" height="20" as="geometry" />
        </mxCell>
        <mxCell id="hwOIIoW1mXE2I7TnD8qz-262" value="" style="ellipse;whiteSpace=wrap;html=1;aspect=fixed;" vertex="1" parent="1">
          <mxGeometry x="478" y="780" width="20" height="20" as="geometry" />
        </mxCell>
        <mxCell id="hwOIIoW1mXE2I7TnD8qz-263" value="" style="ellipse;whiteSpace=wrap;html=1;aspect=fixed;" vertex="1" parent="1">
          <mxGeometry x="514" y="780" width="20" height="20" as="geometry" />
        </mxCell>
        <mxCell id="hwOIIoW1mXE2I7TnD8qz-264" value="" style="endArrow=none;html=1;rounded=0;entryX=0.5;entryY=1;entryDx=0;entryDy=0;exitX=0.5;exitY=0;exitDx=0;exitDy=0;" edge="1" parent="1" source="hwOIIoW1mXE2I7TnD8qz-260" target="hwOIIoW1mXE2I7TnD8qz-255">
          <mxGeometry width="50" height="50" relative="1" as="geometry">
            <mxPoint x="361" y="730" as="sourcePoint" />
            <mxPoint x="411" y="680" as="targetPoint" />
          </mxGeometry>
        </mxCell>
        <mxCell id="hwOIIoW1mXE2I7TnD8qz-265" value="" style="endArrow=none;html=1;rounded=0;entryX=0.5;entryY=1;entryDx=0;entryDy=0;exitX=0.5;exitY=0;exitDx=0;exitDy=0;" edge="1" parent="1" source="hwOIIoW1mXE2I7TnD8qz-261" target="hwOIIoW1mXE2I7TnD8qz-255">
          <mxGeometry width="50" height="50" relative="1" as="geometry">
            <mxPoint x="361" y="820" as="sourcePoint" />
            <mxPoint x="411" y="770" as="targetPoint" />
          </mxGeometry>
        </mxCell>
        <mxCell id="hwOIIoW1mXE2I7TnD8qz-266" value="" style="endArrow=none;html=1;rounded=0;entryX=0.5;entryY=1;entryDx=0;entryDy=0;exitX=0.5;exitY=0;exitDx=0;exitDy=0;" edge="1" parent="1" source="hwOIIoW1mXE2I7TnD8qz-262" target="hwOIIoW1mXE2I7TnD8qz-255">
          <mxGeometry width="50" height="50" relative="1" as="geometry">
            <mxPoint x="351" y="850" as="sourcePoint" />
            <mxPoint x="401" y="800" as="targetPoint" />
          </mxGeometry>
        </mxCell>
        <mxCell id="hwOIIoW1mXE2I7TnD8qz-267" value="" style="endArrow=none;html=1;rounded=0;entryX=0.5;entryY=1;entryDx=0;entryDy=0;exitX=0.5;exitY=0;exitDx=0;exitDy=0;" edge="1" parent="1" source="hwOIIoW1mXE2I7TnD8qz-263" target="hwOIIoW1mXE2I7TnD8qz-255">
          <mxGeometry width="50" height="50" relative="1" as="geometry">
            <mxPoint x="341" y="820" as="sourcePoint" />
            <mxPoint x="391" y="770" as="targetPoint" />
          </mxGeometry>
        </mxCell>
        <mxCell id="hwOIIoW1mXE2I7TnD8qz-268" value="" style="endArrow=none;html=1;rounded=0;entryX=0.5;entryY=1;entryDx=0;entryDy=0;exitX=0.5;exitY=0;exitDx=0;exitDy=0;" edge="1" parent="1" source="hwOIIoW1mXE2I7TnD8qz-260" target="hwOIIoW1mXE2I7TnD8qz-256">
          <mxGeometry width="50" height="50" relative="1" as="geometry">
            <mxPoint x="341" y="840" as="sourcePoint" />
            <mxPoint x="391" y="790" as="targetPoint" />
          </mxGeometry>
        </mxCell>
        <mxCell id="hwOIIoW1mXE2I7TnD8qz-269" value="" style="endArrow=none;html=1;rounded=0;entryX=0.5;entryY=1;entryDx=0;entryDy=0;exitX=0.5;exitY=0;exitDx=0;exitDy=0;" edge="1" parent="1" source="hwOIIoW1mXE2I7TnD8qz-261" target="hwOIIoW1mXE2I7TnD8qz-256">
          <mxGeometry width="50" height="50" relative="1" as="geometry">
            <mxPoint x="351" y="840" as="sourcePoint" />
            <mxPoint x="401" y="790" as="targetPoint" />
          </mxGeometry>
        </mxCell>
        <mxCell id="hwOIIoW1mXE2I7TnD8qz-270" value="" style="endArrow=none;html=1;rounded=0;entryX=0.5;entryY=1;entryDx=0;entryDy=0;exitX=0.5;exitY=0;exitDx=0;exitDy=0;" edge="1" parent="1" source="hwOIIoW1mXE2I7TnD8qz-262" target="hwOIIoW1mXE2I7TnD8qz-256">
          <mxGeometry width="50" height="50" relative="1" as="geometry">
            <mxPoint x="421" y="860" as="sourcePoint" />
            <mxPoint x="471" y="810" as="targetPoint" />
          </mxGeometry>
        </mxCell>
        <mxCell id="hwOIIoW1mXE2I7TnD8qz-271" value="" style="endArrow=none;html=1;rounded=0;entryX=0.5;entryY=1;entryDx=0;entryDy=0;exitX=0.5;exitY=0;exitDx=0;exitDy=0;" edge="1" parent="1" source="hwOIIoW1mXE2I7TnD8qz-263" target="hwOIIoW1mXE2I7TnD8qz-256">
          <mxGeometry width="50" height="50" relative="1" as="geometry">
            <mxPoint x="351" y="830" as="sourcePoint" />
            <mxPoint x="401" y="780" as="targetPoint" />
          </mxGeometry>
        </mxCell>
        <mxCell id="hwOIIoW1mXE2I7TnD8qz-272" value="" style="endArrow=none;html=1;rounded=0;entryX=0.5;entryY=1;entryDx=0;entryDy=0;exitX=0.5;exitY=0;exitDx=0;exitDy=0;" edge="1" parent="1" source="hwOIIoW1mXE2I7TnD8qz-260" target="hwOIIoW1mXE2I7TnD8qz-257">
          <mxGeometry width="50" height="50" relative="1" as="geometry">
            <mxPoint x="411" y="810" as="sourcePoint" />
            <mxPoint x="461" y="760" as="targetPoint" />
          </mxGeometry>
        </mxCell>
        <mxCell id="hwOIIoW1mXE2I7TnD8qz-273" value="" style="endArrow=none;html=1;rounded=0;entryX=0.5;entryY=1;entryDx=0;entryDy=0;" edge="1" parent="1" target="hwOIIoW1mXE2I7TnD8qz-257">
          <mxGeometry width="50" height="50" relative="1" as="geometry">
            <mxPoint x="451" y="780" as="sourcePoint" />
            <mxPoint x="471" y="770" as="targetPoint" />
          </mxGeometry>
        </mxCell>
        <mxCell id="hwOIIoW1mXE2I7TnD8qz-274" value="" style="endArrow=none;html=1;rounded=0;entryX=0.5;entryY=1;entryDx=0;entryDy=0;exitX=0.5;exitY=0;exitDx=0;exitDy=0;" edge="1" parent="1" source="hwOIIoW1mXE2I7TnD8qz-262" target="hwOIIoW1mXE2I7TnD8qz-257">
          <mxGeometry width="50" height="50" relative="1" as="geometry">
            <mxPoint x="421" y="860" as="sourcePoint" />
            <mxPoint x="471" y="810" as="targetPoint" />
          </mxGeometry>
        </mxCell>
        <mxCell id="hwOIIoW1mXE2I7TnD8qz-275" value="" style="endArrow=none;html=1;rounded=0;entryX=0.5;entryY=1;entryDx=0;entryDy=0;exitX=0.5;exitY=0;exitDx=0;exitDy=0;" edge="1" parent="1" source="hwOIIoW1mXE2I7TnD8qz-263" target="hwOIIoW1mXE2I7TnD8qz-257">
          <mxGeometry width="50" height="50" relative="1" as="geometry">
            <mxPoint x="421" y="870" as="sourcePoint" />
            <mxPoint x="471" y="820" as="targetPoint" />
          </mxGeometry>
        </mxCell>
        <mxCell id="hwOIIoW1mXE2I7TnD8qz-276" value="" style="endArrow=none;html=1;rounded=0;entryX=0.5;entryY=1;entryDx=0;entryDy=0;exitX=0.5;exitY=0;exitDx=0;exitDy=0;" edge="1" parent="1" source="hwOIIoW1mXE2I7TnD8qz-260" target="hwOIIoW1mXE2I7TnD8qz-258">
          <mxGeometry width="50" height="50" relative="1" as="geometry">
            <mxPoint x="451" y="870" as="sourcePoint" />
            <mxPoint x="501" y="820" as="targetPoint" />
          </mxGeometry>
        </mxCell>
        <mxCell id="hwOIIoW1mXE2I7TnD8qz-277" value="" style="endArrow=none;html=1;rounded=0;entryX=0.5;entryY=1;entryDx=0;entryDy=0;exitX=0.5;exitY=0;exitDx=0;exitDy=0;" edge="1" parent="1" source="hwOIIoW1mXE2I7TnD8qz-261" target="hwOIIoW1mXE2I7TnD8qz-258">
          <mxGeometry width="50" height="50" relative="1" as="geometry">
            <mxPoint x="431" y="860" as="sourcePoint" />
            <mxPoint x="481" y="810" as="targetPoint" />
          </mxGeometry>
        </mxCell>
        <mxCell id="hwOIIoW1mXE2I7TnD8qz-278" value="" style="endArrow=none;html=1;rounded=0;exitX=0.5;exitY=0;exitDx=0;exitDy=0;" edge="1" parent="1" source="hwOIIoW1mXE2I7TnD8qz-262">
          <mxGeometry width="50" height="50" relative="1" as="geometry">
            <mxPoint x="441" y="850" as="sourcePoint" />
            <mxPoint x="501" y="760" as="targetPoint" />
          </mxGeometry>
        </mxCell>
        <mxCell id="hwOIIoW1mXE2I7TnD8qz-279" value="" style="endArrow=none;html=1;rounded=0;entryX=0.5;entryY=1;entryDx=0;entryDy=0;exitX=0.5;exitY=0;exitDx=0;exitDy=0;" edge="1" parent="1" source="hwOIIoW1mXE2I7TnD8qz-263" target="hwOIIoW1mXE2I7TnD8qz-258">
          <mxGeometry width="50" height="50" relative="1" as="geometry">
            <mxPoint x="441" y="870" as="sourcePoint" />
            <mxPoint x="491" y="820" as="targetPoint" />
          </mxGeometry>
        </mxCell>
        <mxCell id="hwOIIoW1mXE2I7TnD8qz-280" value="" style="endArrow=none;html=1;rounded=0;entryX=0.5;entryY=1;entryDx=0;entryDy=0;exitX=0.5;exitY=0;exitDx=0;exitDy=0;" edge="1" parent="1" source="hwOIIoW1mXE2I7TnD8qz-260" target="hwOIIoW1mXE2I7TnD8qz-259">
          <mxGeometry width="50" height="50" relative="1" as="geometry">
            <mxPoint x="431" y="860" as="sourcePoint" />
            <mxPoint x="481" y="810" as="targetPoint" />
          </mxGeometry>
        </mxCell>
        <mxCell id="hwOIIoW1mXE2I7TnD8qz-281" value="" style="endArrow=none;html=1;rounded=0;entryX=0.5;entryY=1;entryDx=0;entryDy=0;exitX=0.5;exitY=0;exitDx=0;exitDy=0;" edge="1" parent="1" source="hwOIIoW1mXE2I7TnD8qz-261" target="hwOIIoW1mXE2I7TnD8qz-259">
          <mxGeometry width="50" height="50" relative="1" as="geometry">
            <mxPoint x="481" y="880" as="sourcePoint" />
            <mxPoint x="531" y="830" as="targetPoint" />
          </mxGeometry>
        </mxCell>
        <mxCell id="hwOIIoW1mXE2I7TnD8qz-282" value="" style="endArrow=none;html=1;rounded=0;entryX=0.5;entryY=1;entryDx=0;entryDy=0;exitX=0.5;exitY=0;exitDx=0;exitDy=0;" edge="1" parent="1" source="hwOIIoW1mXE2I7TnD8qz-262" target="hwOIIoW1mXE2I7TnD8qz-259">
          <mxGeometry width="50" height="50" relative="1" as="geometry">
            <mxPoint x="461" y="860" as="sourcePoint" />
            <mxPoint x="511" y="810" as="targetPoint" />
          </mxGeometry>
        </mxCell>
        <mxCell id="hwOIIoW1mXE2I7TnD8qz-283" value="" style="endArrow=none;html=1;rounded=0;entryX=0.5;entryY=1;entryDx=0;entryDy=0;exitX=0.5;exitY=0;exitDx=0;exitDy=0;" edge="1" parent="1" source="hwOIIoW1mXE2I7TnD8qz-263" target="hwOIIoW1mXE2I7TnD8qz-259">
          <mxGeometry width="50" height="50" relative="1" as="geometry">
            <mxPoint x="521" y="860" as="sourcePoint" />
            <mxPoint x="571" y="810" as="targetPoint" />
          </mxGeometry>
        </mxCell>
        <mxCell id="hwOIIoW1mXE2I7TnD8qz-289" value="&lt;font style=&quot;font-size: 15px;&quot;&gt;&lt;b&gt;Prediction Head Left&lt;/b&gt;&lt;/font&gt;" style="text;html=1;strokeColor=none;fillColor=none;align=center;verticalAlign=middle;whiteSpace=wrap;rounded=0;" vertex="1" parent="1">
          <mxGeometry x="150.5" y="810" width="149" height="30" as="geometry" />
        </mxCell>
        <mxCell id="hwOIIoW1mXE2I7TnD8qz-290" value="&lt;font style=&quot;font-size: 15px;&quot;&gt;&lt;b&gt;Prediction Head Right&lt;/b&gt;&lt;/font&gt;" style="text;html=1;strokeColor=none;fillColor=none;align=center;verticalAlign=middle;whiteSpace=wrap;rounded=0;" vertex="1" parent="1">
          <mxGeometry x="381" y="810" width="160" height="30" as="geometry" />
        </mxCell>
        <mxCell id="hwOIIoW1mXE2I7TnD8qz-291" value="Linear Layer" style="text;html=1;strokeColor=none;fillColor=none;align=center;verticalAlign=middle;whiteSpace=wrap;rounded=0;" vertex="1" parent="1">
          <mxGeometry x="448.5" y="632" width="60" height="30" as="geometry" />
        </mxCell>
        <mxCell id="hwOIIoW1mXE2I7TnD8qz-292" value="Dropout Layer" style="text;html=1;strokeColor=none;fillColor=none;align=center;verticalAlign=middle;whiteSpace=wrap;rounded=0;" vertex="1" parent="1">
          <mxGeometry x="448.5" y="275" width="60" height="30" as="geometry" />
        </mxCell>
        <mxCell id="hwOIIoW1mXE2I7TnD8qz-293" value="Dropout Layer" style="text;html=1;strokeColor=none;fillColor=none;align=center;verticalAlign=middle;whiteSpace=wrap;rounded=0;" vertex="1" parent="1">
          <mxGeometry x="450" y="515" width="60" height="30" as="geometry" />
        </mxCell>
        <mxCell id="hwOIIoW1mXE2I7TnD8qz-294" value="PReLU Activation" style="rounded=0;whiteSpace=wrap;html=1;" vertex="1" parent="1">
          <mxGeometry x="190" y="700" width="310" height="17" as="geometry" />
        </mxCell>
      </root>
    </mxGraphModel>
  </diagram>
</mxfile>
